<svg xmlns="http://www.w3.org/2000/svg" xmlns:xlink="http://www.w3.org/1999/xlink" viewBox="0 0 1667.71 1287.74"><defs><style>.cls-1,.cls-15,.cls-5,.cls-7,.cls-8{fill:none;}.cls-2{fill:#1f1515;}.cls-3{fill:#fead76;}.cls-4{fill:#eb792c;}.cls-5{stroke:#1f1515;stroke-width:3.73px;}.cls-15,.cls-5,.cls-7,.cls-8{stroke-linecap:round;stroke-linejoin:round;}.cls-6{fill:#ff7f4d;}.cls-7{stroke:#f3562b;}.cls-7,.cls-8{stroke-width:5.05px;}.cls-15,.cls-8{stroke:#eb792c;}.cls-9{fill:#fff;}.cls-10{fill:#545472;}.cls-11{clip-path:url(#clip-path);}.cls-12{fill:#8a5ad6;}.cls-13{fill:#a277e6;}.cls-14{fill:#f3562b;}.cls-15{stroke-width:5.52px;}</style><clipPath id="clip-path"><path class="cls-1" d="M905.76,1191.48c128.08,2.79,257.21,34.93,383.13,9,230.08-47.4,404.86-311.32,375.63-567.2s-258-463.83-491.52-446.91c-75.44,5.46-152.84,30.93-225,6.08C851.81,159.34,792.79,46,697.2,10.85,567.74-36.7,403.15,82.64,303.5,164.3,200.71,248.53,81.49,374.23,34,508.94c-49,139-40.25,323.11-3.52,464.18,32.92,126.44,115.69,233,226.1,284.26,134.59,62.5,244.43,15.69,375.6-26.05A842.56,842.56,0,0,1,905.76,1191.48Z"/></clipPath><symbol id="woman_sad" data-name="woman_sad" viewBox="0 0 487.14 660.67"><path class="cls-2" d="M442,445.87c89.15-94.47-80.2-298.26-210.35-298.26-119.12,0-295.77,202.69-208,298.26C94.35,522.9,370.17,521.94,442,445.87Z"/><rect class="cls-3" x="202.01" y="270.34" width="118.09" height="252.79"/><path class="cls-4" d="M320.1,375.7v70.81C300,442.83,219.31,455.87,212,375.7Z"/><path class="cls-3" d="M377.57,499c-3.35,25.62-29.35,161.65-111,161.65-65.84,0-107.51-136-110.86-161.65l115-10Z"/><circle class="cls-2" cx="294.05" cy="182.98" r="140.1"/><path class="cls-3" d="M412.59,194.48,391,312.13v0a245.31,245.31,0,0,1-5.58,24.24c-6,20.58-15.49,40.3-32.28,52.06C313,416.59,308.47,437.06,281.47,432c-27-4.79-63.36-32.69-91-73.18-16.1-23.59-13.58-56.64-8.5-84.75l21.28-117.75a39.76,39.76,0,0,1,46.2-32l65.63,11.86,65.6,12.06A39.75,39.75,0,0,1,412.59,194.48Z"/><path class="cls-5" d="M291.61,345.57c21.16,1.85,26.93,3.31,36.31,4.58"/><ellipse class="cls-6" cx="258.92" cy="305.68" rx="12.66" ry="24.51" transform="translate(-122.33 428.66) rotate(-67.61)"/><path class="cls-6" d="M391,312.13v0a245.31,245.31,0,0,1-5.58,24.24c-1.19.13-2.39.22-3.62.26-13.53.45-24.68-4.86-24.92-11.84s10.56-13,24.09-13.47A44.84,44.84,0,0,1,391,312.13Z"/><path class="cls-7" d="M326.39,265.06l0,.54a92,92,0,0,0,3.7,27.34c1.67,5.83,1.84,12-5,11.91l-11-2.5"/><path class="cls-5" d="M262,237.42s14.41-3.62,37.19,3.76"/><circle class="cls-2" cx="279.69" cy="264.7" r="10.86"/><path class="cls-5" d="M395.27,261.72s-9.39-10.52-31.52-10.18"/><circle class="cls-2" cx="373.09" cy="281.72" r="10.86"/><path class="cls-2" d="M228.55,18.51c23,24.1,26.88,57.64,8.75,74.92S185.85,105.2,162.89,81.1s-22.28-51.18-4.15-68.47S205.58-5.58,228.55,18.51Z"/><ellipse class="cls-2" cx="283.39" cy="147.31" rx="102.47" ry="51.96" transform="translate(-33.11 104.44) rotate(-19.75)"/><ellipse class="cls-2" cx="402.14" cy="158.79" rx="51.96" ry="102.47" transform="translate(20.53 362.04) rotate(-49.59)"/><circle class="cls-3" cx="184.24" cy="245.84" r="33.22"/><path class="cls-8" d="M161.07,234.93s15.63-21.45,31.86,2c0,0-10.89-10.23-21,6.3"/><circle class="cls-9" cx="172.07" cy="281.46" r="11.04"/></symbol></defs><title>Asset 1</title><g id="Layer_2" data-name="Layer 2"><g id="_1" data-name="1"><path class="cls-10" d="M905.76,1191.48c128.08,2.79,257.21,34.93,383.13,9,230.08-47.4,404.86-311.32,375.63-567.2s-258-463.83-491.52-446.91c-75.44,5.46-152.84,30.93-225,6.08C851.81,159.34,792.79,46,697.2,10.85,567.74-36.7,403.15,82.64,303.5,164.3,200.71,248.53,81.49,374.23,34,508.94c-49,139-40.25,323.11-3.52,464.18,32.92,126.44,115.69,233,226.1,284.26,134.59,62.5,244.43,15.69,375.6-26.05A842.56,842.56,0,0,1,905.76,1191.48Z"/><g class="cls-11"><path class="cls-3" d="M1031.51,715.75,1101.34,1007a56.69,56.69,0,0,1-109.22,30.18L902.5,751.39a67,67,0,0,1,127.79-40.07C1030.73,712.74,1031.17,714.33,1031.51,715.75Z"/><circle class="cls-12" cx="964.37" cy="706.17" r="99.07"/><path class="cls-12" d="M1052.33,727.16l12.46,62.46s-40.2,39.26-156.22,34.17l-19.18-66.73S988.66,775.56,1052.33,727.16Z"/><path class="cls-13" d="M964.63,776.47a1.5,1.5,0,0,1-.23-3c53.51-8.54,73.4-18.07,73.59-18.16a1.5,1.5,0,1,1,1.32,2.69c-.8.4-20.37,9.8-74.44,18.43Z"/><path class="cls-12" d="M503.05,808.76l18.82,77.07C538,952,575.05,1020.07,572.74,1088.15l-51.12,181.12h435l-51.54-170c-2.51-74.2,16.08-148.35,35.48-220l19.07-70.47,43-89.92c6-59.53-38.43-111.42-95.44-111.42H557.88c-57,0-101.47,51.89-95.43,111.42Z"/><use width="487.14" height="660.67" transform="translate(476.96 108.3)" xlink:href="#woman_sad"/><rect class="cls-9" x="919.56" y="456.63" width="8.24" height="481.65" transform="translate(167.94 -179.18) rotate(12.18)"/><path class="cls-14" d="M1080.48,446.68h0a310.69,310.69,0,0,0-195.3-42.46l-.9.11L861,512.34A128.67,128.67,0,0,0,882.12,614.4l8.09,10.78a73.54,73.54,0,0,0,95.64,19.51l9.95-5.75a128.7,128.7,0,0,0,61.37-84.25Z"/><path class="cls-9" d="M1008,561.1c-8.23,14.39-34.47,35.07-59.4,29.69s-40.29-35-41.86-51.54c11.49,9.09,28.57,16.89,48.42,21.18S993.78,564.65,1008,561.1Z"/><ellipse class="cls-2" cx="928.47" cy="472.63" rx="17.98" ry="10.21" transform="translate(270.6 1280.49) rotate(-77.82)"/><ellipse class="cls-2" cx="1012.05" cy="490.67" rx="17.98" ry="10.21" transform="translate(318.91 1376.42) rotate(-77.82)"/><path class="cls-3" d="M531.19,971.76,825.91,831.84l31.41,59.87L590.85,1083.26a63.4,63.4,0,0,1-93.5-31.46h0A63.41,63.41,0,0,1,531.19,971.76Z"/><g id="arm"><path class="cls-3" d="M809.52,870.58h0a35.09,35.09,0,0,0,55.29,16.64h0s38.38-42.07,37.15-88.73l-59.35-31.73s-29.13,49.46-34.8,84.13A42.2,42.2,0,0,0,809.52,870.58Z"/><path class="cls-3" d="M881.94,811.66l42.22-1a8.15,8.15,0,0,1,6.29,13.55L909.84,847.5a6.58,6.58,0,0,1-11.32-2.79l-4.08-16.54Z"/><path class="cls-3" d="M866.91,779.12,918.5,781A11.58,11.58,0,0,1,927,799.94l-22.19,26.91Z"/><path class="cls-3" d="M846,774.12l45.37-17.46,41.25,6.65a9.44,9.44,0,0,1,7.72,11.32h0a9.43,9.43,0,0,1-9.94,7.4l-31.1-2.38-27.86,15.84Z"/><path class="cls-3" d="M842.53,766.91s29-21.39,48.29-25.57c0,0,45,2.19,49.34,12.16s-6.38,13.63-6.38,13.63l-41.11-.46L861.55,786.1Z"/><path class="cls-4" d="M906,834.4l-.31.08-16.63,3a1.74,1.74,0,1,1-.62-3.42l16.62-3a1.74,1.74,0,0,1,.94,3.34Z"/><path class="cls-4" d="M918.92,813.22a2.31,2.31,0,0,1-.47.11l-35.13,3.28a1.74,1.74,0,0,1-.82-3.34l25.34-10.38,0,0a1.74,1.74,0,0,1,1.28,3.24l-14.52,5.94,23.49-2.19a1.74,1.74,0,0,1,1.9,1.57A1.76,1.76,0,0,1,918.92,813.22Z"/><path class="cls-4" d="M923.38,784a1.72,1.72,0,0,1-1.12.05c-.15-.05-15.43-4.45-28.61-.7a1.74,1.74,0,1,1-.95-3.35c14.16-4,29.88.51,30.55.71a1.73,1.73,0,0,1,1.17,2.16A1.7,1.7,0,0,1,923.38,784Z"/><path class="cls-4" d="M936.83,765.84a1.66,1.66,0,0,1-1,.07L904.37,759a27.9,27.9,0,0,0-17.16,1.59c-7.49,3.2-16.36,7.15-26.37,11.76a1.75,1.75,0,0,1-1.46-3.17c10-4.62,19-8.58,26.46-11.79a31.55,31.55,0,0,1,19.28-1.79l31.47,7a1.74,1.74,0,0,1,.24,3.33Z"/></g><path class="cls-3" d="M602.63,733.68l.31,299.53a56.68,56.68,0,0,1-113.23,4L468.87,738.41a67,67,0,0,1,133.6-9.32C602.57,730.57,602.62,732.22,602.63,733.68Z"/><circle class="cls-12" cx="530.04" cy="709.12" r="99.07"/><path class="cls-12" d="M452.43,755.54l6.87,63.32s50.13,25.39,159.27-14.3l-1.73-69.41S527.7,782.6,452.43,755.54Z"/><path class="cls-4" d="M550.66,965.05a2.53,2.53,0,0,1-1.06-4.82l54.25-25a2.52,2.52,0,1,1,2.11,4.58l-54.25,25A2.62,2.62,0,0,1,550.66,965.05Z"/><path class="cls-13" d="M524.07,789.16c-27.94,0-47.29-6.63-47.61-6.74a1.5,1.5,0,1,1,1-2.83c.54.19,54.81,18.75,112.85-7.3a1.5,1.5,0,0,1,1.23,2.74A164.36,164.36,0,0,1,524.07,789.16Z"/></g><path class="cls-3" d="M1006.3,962.7,748.21,1116.49,773.3,1171l288.38-94.65a63.41,63.41,0,0,0,29.31-94.2h0A63.42,63.42,0,0,0,1006.3,962.7Z"/><line class="cls-8" x1="1002.9" y1="975.8" x2="974.16" y2="981.25"/><path class="cls-3" d="M764.57,1108.38c-10.13-.06-100.87,1.44-100.87,1.44l-15.19,41.77S683,1170.86,711,1186.33c24.38,13.47,42.75,2.7,63.63-15.51C774.65,1170.82,780.85,1108.48,764.57,1108.38Z"/><path class="cls-3" d="M688.11,1153.63s-28.72,34-37.73,41.95c-8.69,7.66-25.24.26-14.22-16S666,1133.3,666,1133.3Z"/><path class="cls-3" d="M720.68,1174s-32.25,24.18-40.31,30.17c-7.77,5.77-22.08-2.24-11.8-14.9s28.91-35,28.91-35Z"/><path class="cls-3" d="M667.5,1150.77s-22.67,20.25-33.87,32c-8.74,9.16-21.56-.62-15.4-11.27,7.09-12.26,17.95-32.43,22.66-39.35,5.16-7.58,8.23-13.24,21.66-12s28.88,3.22,28.88,3.22l-8.29,28.49Z"/><path class="cls-3" d="M663.7,1109.82s-20.47-1-24.89-1.31c-5.82-.47-7.22-.14-10.78,2.1-9.09,5.71-30.84,26.37-35.82,30.72-6.53,5.71,2.47,16.69,11.68,12.06,10.74-5.41,30.5-18.09,30.5-18.09l31.86,4.72Z"/><path class="cls-15" d="M641.1,1169.86c5.1-7.32,19.81-34.74,24.89-36.56s34.14-7.85,34.14-7.85"/><path class="cls-15" d="M685.88,1163.38c2.06-2.18,7.17-8.74,11.07-12.72s13.47-4.12,13.47-4.12"/><path class="cls-15" d="M641.42,1129.46c2.93-3.31,6.21-5.17,13.23-6.76,3.69-.83,20.19-3.93,20.19-3.93"/></g></g></svg>